<!DOCTYPE svg PUBLIC "-//W3C//DTD SVG 1.1//EN" "http://www.w3.org/Graphics/SVG/1.1/DTD/svg11.dtd">
<!-- Uploaded to: SVG Repo, www.svgrepo.com, Transformed by: SVG Repo Mixer Tools -->
<svg fill="#ffffff" height="64px" width="64px" version="1.1" xmlns="http://www.w3.org/2000/svg" xmlns:xlink="http://www.w3.org/1999/xlink" viewBox="0 0 24 24" xml:space="preserve" stroke="#ffffff">
<g id="SVGRepo_bgCarrier" stroke-width="0"/>
<g id="SVGRepo_tracerCarrier" stroke-linecap="round" stroke-linejoin="round"/>
<g id="SVGRepo_iconCarrier"> <g id="vm-maintenance"> <path d="M23.7,13.7l-2,2l-1.4-1.4l2-2c-1.1-0.6-2.5-0.4-3.5,0.6c-0.9,0.9-1.1,2.3-0.6,3.5L13,21.6l1.4,1.4l5.2-5.2 c1.1,0.5,2.5,0.4,3.5-0.6C24,16.3,24.2,14.9,23.7,13.7z"/> <path d="M12,20H0V8h4V1h12v4h3v5h-2V7h-1v6h-4v2h2v2h-2V20z M2,18h8v-1H7v-4H4v-3H2V18z M9,15h1v-2H9V15z M12,11h2V7H9v1h3V11z M9,11h1v-1H9V11z M6,11h1v-1H6V11z M6,8h1V5h7V3H6V8z"/> </g> </g>
</svg>