<svg width="20" height="20" viewBox="0 0 20 20" fill="none" xmlns="http://www.w3.org/2000/svg">
<path d="M10.625 9.375H12.5V10.625H10.625V12.5H9.375V10.625H7.5V9.375H9.375V7.5H10.625V9.375ZM16.875 6.40188V16.875C16.875 17.9106 16.0356 18.75 15 18.75H5C3.96438 18.75 3.125 17.9106 3.125 16.875V3.125C3.125 2.08938 3.96438 1.25 5 1.25H11.7231C11.995 1.25 12.2575 1.31375 12.5 1.42438V4.375C12.5 5.06438 13.0606 5.625 13.75 5.625H16.7006C16.8113 5.8675 16.875 6.13 16.875 6.40188ZM13.125 9.375C13.125 9.03 12.845 8.75 12.5 8.75H11.25V7.5C11.25 7.155 10.97 6.875 10.625 6.875H9.375C9.03 6.875 8.75 7.155 8.75 7.5V8.75H7.5C7.155 8.75 6.875 9.03 6.875 9.375V10.625C6.875 10.97 7.155 11.25 7.5 11.25H8.75V12.5C8.75 12.845 9.03 13.125 9.375 13.125H10.625C10.97 13.125 11.25 12.845 11.25 12.5V11.25H12.5C12.845 11.25 13.125 10.97 13.125 10.625V9.375ZM13.75 5H16.25L13.125 1.875V4.375C13.125 4.72 13.405 5 13.75 5Z" fill="black"/>
</svg>
