<svg width="40" height="40" viewBox="0 0 40 40" fill="none" xmlns="http://www.w3.org/2000/svg">
<path d="M14.6042 4.37881C14.2577 4.37881 13.9768 4.65967 13.9768 5.00616C13.9768 5.35264 14.2577 5.6335 14.6042 5.6335H19.7743C19.8848 5.17952 20.0737 4.75592 20.3271 4.37881H14.6042Z" fill="white"/>
<path d="M38.1035 0H11.2001C10.7237 0 10.3374 0.386171 10.3374 0.862655V18.8903C10.3374 19.3667 10.7236 19.7529 11.2001 19.7529H15.6878L15.6965 18.0277H12.0628V1.72523H37.2409V18.0277H28.3105V19.7529H38.1034C38.5798 19.7529 38.9661 19.3668 38.9661 18.8903V0.862655C38.9661 0.386171 38.5798 0 38.1035 0Z" fill="white"/>
<path d="M23.5881 3.81218C22.0696 3.81218 20.8386 5.04319 20.8386 6.56171C20.8386 7.30014 21.1349 8.01967 21.6899 8.54975C22.166 8.54975 25.0199 8.54975 25.4863 8.54975C26.0105 8.04912 26.3376 7.34381 26.3376 6.56171C26.3377 5.04319 25.1067 3.81218 23.5881 3.81218Z" fill="white"/>
<path d="M35.753 6.08085C35.5959 5.93273 35.412 5.83171 35.2182 5.77468L34.9241 4.37445C34.8351 3.9507 34.4194 3.67922 33.9955 3.7682C33.68 3.83445 33.4493 4.08187 33.3885 4.37882H26.8495C27.1029 4.75609 27.2918 5.1796 27.4023 5.63359H33.586L33.7253 6.29726L31.0275 9.15819C30.4693 9.2235 26.7022 9.66389 26.17 9.72616C26.17 9.72616 21.3439 9.72616 20.0384 9.72616C18.3233 9.72616 16.9077 11.1213 16.899 12.8498L16.8506 22.4992C16.8459 23.4316 17.5111 23.9261 18.1701 23.9294C18.1723 23.9294 18.1746 23.9294 18.1769 23.9294C18.9062 23.9293 19.4994 23.3398 19.503 22.6094L19.5172 19.7769L19.552 12.8631C19.5561 12.7112 19.6815 12.5908 19.8334 12.5929C19.9853 12.595 20.1072 12.7187 20.1072 12.8707C20.1065 25.2571 20.0784 15.8171 20.0784 32.9501C20.5667 32.7358 21.1001 32.607 21.6601 32.583V32.2686C21.3933 31.7282 21.2427 31.1206 21.2427 30.4783C21.2427 28.9832 22.0558 27.6753 23.2624 26.971V22.4396H23.9498V26.6516C24.373 26.5017 24.8279 26.4192 25.3018 26.4192C25.9607 26.4192 26.5829 26.578 27.1338 26.8578L27.1287 12.2853C27.9562 12.1885 31.2713 11.8009 31.8153 11.7374C32.1251 11.7012 32.4123 11.5569 32.6264 11.3299L35.8079 7.95624C36.3107 7.42319 36.286 6.58359 35.753 6.08085Z" fill="white"/>
<path d="M31.7639 36.9987C31.7556 35.3301 30.3888 33.9811 28.7311 33.9811C27.875 33.9811 22.7071 33.9811 21.8507 33.9811C20.1867 33.9811 18.8262 35.3349 18.8178 36.9988L18.8027 39.9999H19.9345C19.9345 38.2586 21.3577 36.8652 23.0692 36.8652H27.624C29.3479 36.8652 30.7586 38.2695 30.7586 39.9999H31.779L31.7639 36.9987Z" fill="white"/>
<path d="M25.3016 27.8221C23.8348 27.8221 22.6455 29.0112 22.6455 30.4782C22.6455 31.9467 23.8386 33.1343 25.3016 33.1343C26.7596 33.1343 27.9577 31.9533 27.9577 30.4782C27.9578 29.0113 26.7685 27.8221 25.3016 27.8221Z" fill="white"/>
<path d="M7.51107 27.8221C6.04748 27.8221 4.85498 29.0077 4.85498 30.4782C4.8549 31.9538 6.05396 33.1343 7.51107 33.1343C8.9745 33.1343 10.1672 31.9462 10.1672 30.4782C10.1672 29.0113 8.97802 27.8221 7.51107 27.8221Z" fill="white"/>
<path d="M27.624 37.7601H23.0692C21.8322 37.7601 20.8293 38.7628 20.8293 39.9999H29.8639C29.8639 38.7629 28.861 37.7601 27.624 37.7601Z" fill="white"/>
<path d="M9.62744 37.7601H5.0726C3.83557 37.7601 2.83276 38.7628 2.83276 39.9999C3.76706 39.9999 10.941 39.9999 11.8673 39.9999C11.8673 38.7629 10.8645 37.7601 9.62744 37.7601Z" fill="white"/>
<path d="M16.4904 24.8855C15.8798 24.7468 15.2728 25.1297 15.1345 25.74L13.7913 31.6616C13.4858 31.8851 10.9646 33.7294 10.6206 33.9811C9.92329 33.9811 4.48283 33.9811 4.0819 33.9811C2.42635 33.9811 1.05745 35.3279 1.04901 36.9988L1.03394 40H1.93807C1.93807 38.2695 3.34838 36.8653 5.07276 36.8653H9.62759C10.2106 36.8653 10.7567 37.0258 11.2249 37.3044L11.2427 36.3345L15.4721 33.2407C15.6929 33.0792 15.8477 32.8435 15.9082 32.5767L17.3451 26.2415C17.4835 25.631 17.1009 25.0239 16.4904 24.8855Z" fill="white"/>
</svg>
