<svg width="20" height="20" viewBox="0 0 20 20" fill="none" xmlns="http://www.w3.org/2000/svg">
<path d="M8.33335 15C9.8125 14.9997 11.249 14.5045 12.4142 13.5933L16.0775 17.2566L17.2559 16.0783L13.5925 12.415C14.5042 11.2497 14.9997 9.81282 15 8.33329C15 4.65746 12.0092 1.66663 8.33335 1.66663C4.65752 1.66663 1.66669 4.65746 1.66669 8.33329C1.66669 12.0091 4.65752 15 8.33335 15ZM8.33335 3.33329C11.0909 3.33329 13.3334 5.57579 13.3334 8.33329C13.3334 11.0908 11.0909 13.3333 8.33335 13.3333C5.57585 13.3333 3.33335 11.0908 3.33335 8.33329C3.33335 5.57579 5.57585 3.33329 8.33335 3.33329Z" fill="#F6F7F8"/>
</svg>
