<svg width="35" height="35" viewBox="0 0 35 35" fill="none" xmlns="http://www.w3.org/2000/svg">
<circle cx="17.5" cy="17.5" r="17.5" fill="#F9C550"/>
<circle cx="17.5" cy="17.5" r="17" stroke="black" stroke-opacity="0.15"/>
<rect x="11.6104" y="20.8813" width="13.6298" height="3.55932" rx="1" fill="#F6F7F8"/>
<rect x="13.125" y="24.4407" width="10.601" height="3.55932" fill="#F6F7F8"/>
<path d="M8.58193 26.4873H14.7154V27.4999H16.1541V24.7076H10.5L10.5 20L11 19.0001L11.6108 18.6419L15 18.5001C15.3029 18.3221 17.1514 16.6779 17 16.4999C16.8486 16.322 16.2298 15.911 16.1541 15.9999C16.0784 16.0889 14.6396 17.411 14.6396 17.411H11.6108C11.6108 17.411 8.65762 17.233 8.58193 17.411C8.50623 17.589 8.05189 26.4873 8.58193 26.4873Z" fill="#F6F7F8" stroke="#F6F7F8" stroke-linecap="round"/>
<path d="M23.8018 21.0593L22.7417 21.1483L23.6504 19.1907L24.4833 16.2542C24.4833 16.2542 22.2874 16.9661 22.0602 16.9661C21.8331 16.9661 19.6371 16.4322 19.6371 16.4322C19.5614 16.3432 19.5614 15.2754 19.7129 15.1864C19.8643 15.0975 22.0602 15.5424 22.0602 15.5424C22.0602 15.5424 24.1804 14.7415 24.4833 14.6525C24.7862 14.5636 26.3006 14.3856 26.4521 14.4746C26.6035 14.5636 27.9665 20.8814 27.9665 20.8814C27.9665 20.8814 28.0422 27.911 27.9665 27.911H26.6793H26.6035C26.6035 27.911 25.3919 28 25.392 27.911C25.392 27.822 26.4521 20.8814 26.4521 20.8814L25.392 16.9661L24.6347 19.1907L23.8018 21.0593Z" fill="#F6F7F8"/>
<ellipse cx="9.515" cy="14.78" rx="1.515" ry="1.78" fill="#F6F7F8"/>
<ellipse cx="25.1648" cy="12.428" rx="1.43871" ry="1.69068" fill="#F6F7F8"/>
<g clip-path="url(#clip0_502_6770)">
<path fill-rule="evenodd" clip-rule="evenodd" d="M21.8878 12.9262C22.0235 13.0325 22.1959 13.1459 22.398 13.2336C22.7898 13.4034 23.0825 13.4133 23.2179 13.4046C23.5198 13.385 23.5604 13.1662 23.3985 12.8947C23.2136 12.5846 23.0355 12.2343 23.0531 11.8465C23.3305 11.3775 23.4925 10.8117 23.4925 10.2034C23.4925 8.58166 22.3427 7.26697 20.9243 7.26697C19.5059 7.26697 18.3561 8.58166 18.3561 10.2034C18.3561 11.8252 19.5059 13.1398 20.9243 13.1398C21.2647 13.1398 21.59 13.064 21.8878 12.9262ZM20.9243 7.80087C19.7638 7.80087 18.823 8.87652 18.823 10.2034C18.823 11.5303 19.7638 12.606 20.9243 12.606C21.2441 12.606 21.5466 12.5245 21.8173 12.3789C21.8964 12.3364 21.9895 12.3479 22.0588 12.4087C22.1809 12.5158 22.3541 12.6435 22.5636 12.7344C22.6546 12.7738 22.7378 12.8023 22.8121 12.8228C22.7345 12.6607 22.6559 12.4676 22.6197 12.2859C22.5824 12.0987 22.5264 11.7726 22.6352 11.5985C22.881 11.2053 23.0256 10.724 23.0256 10.2034C23.0256 8.87652 22.0848 7.80087 20.9243 7.80087ZM21.2161 11.4714C21.2161 11.6557 21.0855 11.8051 20.9243 11.8051C20.7631 11.8051 20.6325 11.6557 20.6325 11.4714C20.6325 11.2871 20.7631 11.1377 20.9243 11.1377C21.0855 11.1377 21.2161 11.2871 21.2161 11.4714ZM20.4889 9.39304C20.5507 9.25829 20.7102 9.13561 20.9243 9.13561C21.2238 9.13561 21.3912 9.35839 21.3912 9.53604C21.3912 9.71369 21.2238 9.93646 20.9243 9.93646C20.7953 9.93646 20.6908 10.056 20.6908 10.2034V10.4704C20.6908 10.6178 20.7953 10.7373 20.9243 10.7373C21.0532 10.7373 21.1578 10.6178 21.1578 10.4704V10.4401C21.5387 10.3405 21.8582 10.0024 21.8582 9.53604C21.8582 8.97652 21.3984 8.60171 20.9243 8.60171C20.564 8.60171 20.2298 8.80847 20.0754 9.14513C20.0155 9.2757 20.0595 9.43705 20.1737 9.50551C20.2879 9.57397 20.4291 9.52362 20.4889 9.39304Z" fill="#F6F7F8"/>
</g>
<path fill-rule="evenodd" clip-rule="evenodd" d="M12.9881 13.2821C12.8524 13.3884 12.68 13.5018 12.4779 13.5895C12.0861 13.7593 11.7933 13.7692 11.658 13.7605C11.3561 13.7409 11.3155 13.5221 11.4774 13.2506C11.6623 12.9405 11.8404 12.5902 11.8228 12.2024C11.5454 11.7334 11.3834 11.1676 11.3834 10.5593C11.3834 8.93755 12.5332 7.62286 13.9516 7.62286C15.37 7.62286 16.5198 8.93755 16.5198 10.5593C16.5198 12.181 15.37 13.4957 13.9516 13.4957C13.6112 13.4957 13.2859 13.4199 12.9881 13.2821ZM13.9516 8.15676C15.1121 8.15676 16.0529 9.23242 16.0529 10.5593C16.0529 11.8862 15.1121 12.9618 13.9516 12.9618C13.6318 12.9618 13.3293 12.8803 13.0585 12.7348C12.9795 12.6923 12.8863 12.7038 12.817 12.7646C12.6949 12.8717 12.5218 12.9994 12.3123 13.0902C12.2213 13.1297 12.1381 13.1582 12.0638 13.1787C12.1414 13.0166 12.22 12.8235 12.2562 12.6418C12.2935 12.4546 12.3494 12.1285 12.2407 11.9544C11.9949 11.5612 11.8503 11.0799 11.8503 10.5593C11.8503 9.23242 12.7911 8.15676 13.9516 8.15676ZM14.0336 10.2034C14.0336 10.3877 13.7967 10.5593 13.9579 10.5593C14.1191 10.5593 13.9579 10.7436 13.9579 10.5593C13.9579 10.375 14.1948 10.2034 14.0336 10.2034C13.8724 10.2034 14.0336 10.0191 14.0336 10.2034ZM13.9516 10.4282C13.8898 10.2935 14.469 10.6038 14.0336 10.2034C14.469 10.8263 13.9579 10.3817 13.9579 10.5593C13.9579 10.737 13.6583 10.5593 13.9579 10.5593C14.0868 10.5593 14.1851 10.4119 14.1851 10.5593L13.9579 10.5593C14.0868 10.5593 13.9579 10.7067 13.9579 10.5593C14.0721 10.4908 13.9579 10.7067 13.9579 10.5593C14.1156 10.3226 13.9579 11.0257 13.9579 10.5593C13.9579 9.99979 13.4838 10.5593 13.9579 10.5593C14.3182 10.5593 13.9579 10.375 13.9579 10.5593C14.0721 10.4908 14.0178 10.6899 13.9579 10.5593C13.8437 10.6278 13.5428 11.0385 13.9516 10.4282Z" fill="#F6F7F8"/>
<g clip-path="url(#clip1_502_6770)">
<path d="M14.4123 9.95469C14.3283 9.87521 14.2302 9.81868 14.1253 9.7892C14.0204 9.75971 13.9112 9.75801 13.8057 9.78421C13.6674 9.81927 13.541 9.90145 13.4423 10.0205C13.3435 10.1395 13.2768 10.2901 13.2506 10.4534C13.2311 10.5727 13.2339 10.6954 13.259 10.8132C13.284 10.931 13.3307 11.0409 13.3956 11.1353C13.448 11.2111 13.4772 11.3054 13.4784 11.403V11.5975C13.4784 11.6722 13.5036 11.7439 13.5486 11.7967C13.5936 11.8496 13.6545 11.8792 13.7181 11.8792H14.1977C14.2613 11.8792 14.3223 11.8496 14.3673 11.7967C14.4122 11.7439 14.4375 11.6722 14.4375 11.5975V11.403C14.4377 11.3072 14.4656 11.2143 14.5166 11.1396C14.621 10.9909 14.6779 10.804 14.6773 10.6112C14.6774 10.4855 14.6537 10.3614 14.6079 10.2478C14.5621 10.1342 14.4952 10.0341 14.4123 9.95469Z" fill="#F6F7F8"/>
<path d="M14.7204 9.85608C14.6888 9.85555 14.6586 9.84036 14.6365 9.81381C14.6141 9.78742 14.6016 9.75171 14.6016 9.71449C14.6016 9.67727 14.6141 9.64156 14.6365 9.61516L14.7204 9.51513C14.7316 9.50199 14.7449 9.49157 14.7595 9.48446C14.7741 9.47735 14.7897 9.47369 14.8055 9.47369C14.8213 9.47369 14.837 9.47735 14.8516 9.48446C14.8662 9.49157 14.8795 9.50199 14.8906 9.51513C14.9018 9.52826 14.9107 9.54386 14.9167 9.56102C14.9228 9.57819 14.9259 9.59658 14.9259 9.61516C14.9259 9.63374 14.9228 9.65213 14.9167 9.6693C14.9107 9.68646 14.9018 9.70205 14.8906 9.71519L14.8055 9.81381C14.7944 9.82713 14.7812 9.83772 14.7666 9.84497C14.752 9.85223 14.7363 9.856 14.7204 9.85608ZM13.1954 9.85608C13.1795 9.856 13.1638 9.85223 13.1492 9.84497C13.1346 9.83772 13.1214 9.82713 13.1103 9.81381L13.0251 9.71519C13.0026 9.68866 12.9899 9.65268 12.9899 9.61516C12.9899 9.57764 13.0026 9.54166 13.0251 9.51513C13.0477 9.4886 13.0783 9.47369 13.1103 9.47369C13.1422 9.47369 13.1728 9.4886 13.1954 9.51513L13.2793 9.61516C13.3016 9.64156 13.3142 9.67727 13.3142 9.71449C13.3142 9.75171 13.3016 9.78742 13.2793 9.81381C13.2572 9.84036 13.227 9.85555 13.1954 9.85608ZM13.9579 9.48413C13.9261 9.48413 13.8956 9.46929 13.8731 9.44287C13.8506 9.41644 13.838 9.38061 13.838 9.34324V9.20235C13.838 9.16499 13.8506 9.12915 13.8731 9.10273C13.8956 9.07631 13.9261 9.06146 13.9579 9.06146C13.9897 9.06146 14.0202 9.07631 14.0427 9.10273C14.0651 9.12915 14.0778 9.16499 14.0778 9.20235V9.34324C14.0778 9.38061 14.0651 9.41644 14.0427 9.44287C14.0202 9.46929 13.9897 9.48413 13.9579 9.48413Z" fill="#F6F7F8"/>
</g>
<path d="M12.2164 27.4661C12.2164 27.4661 7.21875 27.4661 7.06731 27.4661C6.91587 27.4661 7.06731 18.9238 7.06731 18.9238M7.06731 18.9238V15.1865C7.06731 15.1865 7.7404 15.0975 7.78245 15.1865C7.82451 15.2755 7.89185 18.9238 7.78245 18.9238C7.67306 18.9238 7.06731 18.9238 7.06731 18.9238Z" stroke="#F6F7F8" stroke-linecap="round"/>
<defs>
<clipPath id="clip0_502_6770">
<rect width="5.60338" height="6.40678" fill="white" transform="translate(18.1226 7)"/>
</clipPath>
<clipPath id="clip1_502_6770">
<rect width="2.87741" height="3.38136" fill="white" transform="translate(12.5192 8.77966)"/>
</clipPath>
</defs>
</svg>
