<svg width="35" height="35" viewBox="0 0 35 35" fill="none" xmlns="http://www.w3.org/2000/svg">
<circle cx="17.5" cy="17.5" r="17.5" fill="#63DB46"/>
<circle cx="17.5" cy="17.5" r="17" stroke="black" stroke-opacity="0.15"/>
<path d="M10.3305 23.3587C11.0934 23.3587 11.7086 23.9266 11.7086 24.6308C11.7086 25.335 11.0934 25.9029 10.3305 25.9029C9.56763 25.9029 8.95239 25.335 8.95239 24.6308C8.95239 23.9266 9.56763 23.3587 10.3305 23.3587ZM13.9317 23.3587C14.6946 23.3587 15.3098 23.9266 15.3098 24.6308C15.3098 25.335 14.6946 25.9029 13.9317 25.9029C13.1688 25.9029 12.5536 25.335 12.5536 24.6308C12.5536 23.9266 13.177 23.3587 13.9317 23.3587ZM12.0696 20.4207C12.8325 20.4207 13.4477 20.9886 13.4477 21.6928C13.4477 22.397 12.8325 22.965 12.0696 22.965C11.3067 22.965 10.6915 22.397 10.6915 21.6928C10.6915 20.9886 11.3067 20.4207 12.0696 20.4207ZM15.7774 20.4207C16.5403 20.4207 17.1555 20.9886 17.1555 21.6928C17.1555 22.397 16.5403 22.965 15.7774 22.965C15.0145 22.965 14.3993 22.397 14.3993 21.6928C14.3993 20.9886 15.0145 20.4207 15.7774 20.4207ZM19.2801 20.4207C20.043 20.4207 20.6583 20.9886 20.6583 21.6928C20.6583 22.397 20.043 22.965 19.2801 22.965C18.5172 22.965 17.902 22.397 17.902 21.6928C17.902 20.9886 18.5172 20.4207 19.2801 20.4207ZM22.7583 20.4207C23.5211 20.4207 24.1364 20.9886 24.1364 21.6928C24.1364 22.397 23.5211 22.965 22.7583 22.965C21.9954 22.965 21.3801 22.397 21.3801 21.6928C21.3801 20.9886 21.9954 20.4207 22.7583 20.4207ZM21.0848 23.3587C21.8477 23.3587 22.4629 23.9266 22.4629 24.6308C22.4629 25.335 21.8477 25.9029 21.0848 25.9029C20.3219 25.9029 19.7067 25.335 19.7067 24.6308C19.7067 23.9266 20.3219 23.3587 21.0848 23.3587ZM17.5165 23.3738C18.2793 23.3738 18.8946 23.9418 18.8946 24.646C18.8946 25.3502 18.2793 25.9181 17.5165 25.9181C16.7536 25.9181 16.1383 25.3502 16.1383 24.646C16.1629 23.9418 16.7782 23.3738 17.5165 23.3738ZM24.686 23.3738C25.4489 23.3738 26.0641 23.9418 26.0641 24.646C26.0641 25.3502 25.4489 25.9181 24.686 25.9181C23.9231 25.9181 23.3079 25.3502 23.3079 24.646C23.3079 23.9418 23.9231 23.3738 24.686 23.3738ZM13.4231 27.7581C13.4231 26.9782 12.7422 26.3497 11.8973 26.3497H8.7145C7.86958 26.3497 7.18872 26.9782 7.18872 27.7581M20.6418 27.7581C20.6418 26.9782 19.961 26.3497 19.1161 26.3497H15.9333C15.0883 26.3497 14.4075 26.9782 14.4075 27.7581M27.7868 27.7581C27.7868 26.9782 27.1059 26.3497 26.261 26.3497H23.0782C22.2333 26.3497 21.5524 26.9782 21.5524 27.7581M17.5739 11.4326C18.468 11.4326 19.1899 12.099 19.1899 12.9243C19.1899 13.7497 18.468 14.416 17.5739 14.416C16.6797 14.416 15.9579 13.7497 15.9579 12.9243C15.9579 12.099 16.6797 11.4326 17.5739 11.4326ZM15.154 17.9674V16.7937H15.6625V17.9674H19.5016V16.7937H19.9856V17.9674H21.2571V16.6952C21.2571 15.6957 20.6172 14.7341 19.3704 14.7341H15.7446C14.5961 14.7341 13.8743 15.5973 13.8743 16.6725V17.9674H15.154ZM12.3649 18.2475H22.6926V19.8301H12.3649V18.2475Z" fill="#F6F7F8"/>
<path d="M19.875 12.7884C19.8246 12.7893 19.7747 12.7788 19.7296 12.7579C19.6845 12.737 19.6455 12.7064 19.616 12.6686C19.5865 12.6308 19.5674 12.5869 19.5603 12.5409C19.5531 12.4948 19.5582 12.4477 19.575 12.4038L20.2417 10.3846C20.0966 10.0374 20.0231 9.66825 20.025 9.29614C20.0244 8.88679 20.1122 8.48144 20.2834 8.10383C20.4513 7.74247 20.6916 7.41363 20.9917 7.13459C21.2933 6.85501 21.6515 6.63285 22.0459 6.48075C22.4537 6.32091 22.8923 6.23853 23.3354 6.23853C23.7786 6.23853 24.2171 6.32091 24.625 6.48075C25.2226 6.71702 25.7322 7.10941 26.0913 7.60964C26.4504 8.10986 26.6431 8.69608 26.6459 9.29614C26.6432 10.1066 26.2944 10.8833 25.675 11.4577C25.3727 11.7347 25.0165 11.9565 24.625 12.1115C23.8371 12.4161 22.9527 12.4299 22.1542 12.15L19.9667 12.7654C19.9374 12.7769 19.9066 12.7847 19.875 12.7884ZM23.3334 6.8269C22.8056 6.82901 22.2901 6.97361 21.8503 7.24288C21.4105 7.51215 21.0657 7.89432 20.8584 8.34229C20.5829 8.9581 20.5829 9.64956 20.8584 10.2654C20.8832 10.3288 20.8832 10.3981 20.8584 10.4615L20.3459 12.0654L22.075 11.5808C22.1437 11.5578 22.2189 11.5578 22.2875 11.5808C22.6177 11.7073 22.9717 11.7724 23.3292 11.7724C23.6867 11.7724 24.0407 11.7073 24.3709 11.5808C24.6962 11.4543 24.9913 11.2699 25.2393 11.038C25.4872 10.8061 25.6832 10.5314 25.816 10.2295C25.9488 9.9276 26.0157 9.60448 26.0129 9.27864C26.0102 8.95283 25.9379 8.63071 25.8 8.33075C25.5931 7.88496 25.2492 7.50493 24.8108 7.23764C24.3724 6.97037 23.8587 6.82756 23.3334 6.8269Z" fill="#F6F7F8"/>
<path d="M16.4948 10.647L15.166 8.69232" stroke="#F6F7F8" stroke-width="0.56" stroke-linecap="round"/>
<path d="M14.9708 12.3204L13 10.9006" stroke="#F6F7F8" stroke-width="0.56" stroke-linecap="round"/>
<path d="M14.4999 13.5018L12 13.4869" stroke="#F6F7F8" stroke-width="0.56" stroke-linecap="round"/>
</svg>
