<svg width="35" height="35" viewBox="0 0 35 35" fill="none" xmlns="http://www.w3.org/2000/svg">
<circle cx="17.5" cy="17.5" r="17.5" fill="#5ABFF2"/>
<circle cx="17.5" cy="17.5" r="17" stroke="black" stroke-opacity="0.15"/>
<g clip-path="url(#clip0_502_6772)">
<path d="M18 8C17.6399 8 17.3478 8.29191 17.3478 8.65219V27.3479C17.3478 27.7081 17.6399 28 18 28C18.36 28 18.6522 27.7081 18.6522 27.3479V8.65219C18.6522 8.29191 18.36 8 18 8Z" fill="#F6F7F8"/>
<path d="M12.1304 9.73914C10.6919 9.73914 9.52173 10.9093 9.52173 12.3478C9.52173 13.7864 10.6919 14.9566 12.1304 14.9566C13.569 14.9566 14.7392 13.7864 14.7392 12.3478C14.7392 10.9093 13.569 9.73914 12.1304 9.73914Z" fill="#F6F7F8"/>
<path d="M23.8696 9.73914C22.4311 9.73914 21.2609 10.9093 21.2609 12.3478C21.2609 13.7864 22.431 14.9566 23.8696 14.9566C25.3081 14.9566 26.4783 13.7864 26.4783 12.3478C26.4782 10.9093 25.3081 9.73914 23.8696 9.73914Z" fill="#F6F7F8"/>
<path d="M15.9272 16.5416C15.8057 16.3657 15.6053 16.2609 15.3914 16.2609H8.8696C8.65562 16.2609 8.45523 16.3657 8.33378 16.5415C8.21191 16.7173 8.1839 16.9417 8.25905 17.1421L10.174 22.2487V24.7391C10.174 25.818 11.0516 26.6956 12.1305 26.6956C13.2094 26.6956 14.087 25.818 14.087 24.7391V22.2487L16.0019 17.1421C16.0771 16.9418 16.049 16.7173 15.9272 16.5416Z" fill="#F6F7F8"/>
<path d="M27.741 21.9014L25.7845 16.684C25.689 16.4295 25.4457 16.2609 25.174 16.2609H22.5653C22.2935 16.2609 22.0502 16.4295 21.9547 16.684L19.9982 21.9014C19.923 22.1018 19.951 22.3262 20.0729 22.5019C20.1944 22.6778 20.3948 22.7826 20.6087 22.7826H21.9131V24.7392C21.9131 25.818 22.7907 26.6957 23.8696 26.6957C24.9485 26.6957 25.8261 25.818 25.8261 24.7392V22.7826H27.1305C27.3444 22.7826 27.5448 22.6778 27.6663 22.502C27.7881 22.3262 27.8162 22.1018 27.741 21.9014Z" fill="#F6F7F8"/>
</g>
<defs>
<clipPath id="clip0_502_6772">
<rect width="20" height="20" fill="white" transform="translate(8 8)"/>
</clipPath>
</defs>
</svg>
