<svg width="35" height="35" viewBox="0 0 35 35" fill="none" xmlns="http://www.w3.org/2000/svg">
<circle cx="17.5" cy="17.5" r="17.5" fill="#F0884D"/>
<circle cx="17.5" cy="17.5" r="17" stroke="black" stroke-opacity="0.15"/>
<g clip-path="url(#clip0_502_6768)">
<path d="M15.3021 10.1894C15.1288 10.1894 14.9884 10.3298 14.9884 10.5031C14.9884 10.6763 15.1288 10.8167 15.3021 10.8167H17.8871C17.9424 10.5897 18.0369 10.3779 18.1636 10.1894H15.3021Z" fill="#F6F7F8"/>
<path d="M27.0518 8H13.6C13.3619 8 13.1687 8.19309 13.1687 8.43133V17.4451C13.1687 17.6833 13.3618 17.8765 13.6 17.8765H15.8439L15.8483 17.0138H14.0314V8.86262H26.6205V17.0138H22.1552V17.8765H27.0517C27.2899 17.8765 27.483 17.6834 27.483 17.4451V8.43133C27.483 8.19309 27.2899 8 27.0518 8Z" fill="#F6F7F8"/>
<path d="M19.7941 9.90607C19.0348 9.90607 18.4193 10.5216 18.4193 11.2808C18.4193 11.65 18.5674 12.0098 18.845 12.2749C19.083 12.2749 20.5099 12.2749 20.7431 12.2749C21.0052 12.0245 21.1688 11.6719 21.1688 11.2808C21.1688 10.5216 20.5533 9.90607 19.7941 9.90607Z" fill="#F6F7F8"/>
<path d="M25.8765 11.0404C25.7979 10.9664 25.706 10.9159 25.6091 10.8874L25.462 10.1872C25.4176 9.97537 25.2097 9.83962 24.9977 9.88412C24.84 9.91724 24.7246 10.041 24.6942 10.1894H21.4247C21.5514 10.3781 21.6459 10.5898 21.7012 10.8168H24.793L24.8627 11.1486L23.5137 12.5791C23.2347 12.6118 21.3511 12.832 21.085 12.8631C21.085 12.8631 18.6719 12.8631 18.0192 12.8631C17.1616 12.8631 16.4539 13.5607 16.4495 14.4249L16.4253 19.2496C16.423 19.7158 16.7555 19.9631 17.085 19.9647C17.0862 19.9647 17.0873 19.9647 17.0884 19.9647C17.4531 19.9647 17.7497 19.6699 17.7515 19.3047L17.7586 17.8885L17.776 14.4316C17.778 14.3556 17.8408 14.2954 17.9167 14.2965C17.9926 14.2975 18.0536 14.3594 18.0536 14.4354C18.0533 20.6286 18.0392 15.9086 18.0392 24.4751C18.2833 24.3679 18.5501 24.3035 18.83 24.2915V24.1343C18.6966 23.8641 18.6214 23.5603 18.6214 23.2392C18.6214 22.4916 19.0279 21.8377 19.6312 21.4855V19.2198H19.9749V21.3258C20.1865 21.2509 20.4139 21.2096 20.6509 21.2096C20.9804 21.2096 21.2915 21.289 21.5669 21.4289L21.5644 14.1427C21.9781 14.0943 23.6356 13.9005 23.9076 13.8687C24.0626 13.8506 24.2061 13.7785 24.3132 13.665L25.904 11.9781C26.1554 11.7116 26.143 11.2918 25.8765 11.0404Z" fill="#F6F7F8"/>
<path d="M23.8819 26.4993C23.8778 25.665 23.1944 24.9905 22.3655 24.9905C21.9375 24.9905 19.3536 24.9905 18.9253 24.9905C18.0934 24.9905 17.4131 25.6674 17.4089 26.4994L17.4014 27.9999H17.9673C17.9673 27.1293 18.6789 26.4326 19.5346 26.4326H21.812C22.674 26.4326 23.3793 27.1347 23.3793 27.9999H23.8895L23.8819 26.4993Z" fill="#F6F7F8"/>
<path d="M20.6508 21.9111C19.9174 21.9111 19.3228 22.5056 19.3228 23.2391C19.3228 23.9733 19.9193 24.5672 20.6508 24.5672C21.3798 24.5672 21.9788 23.9767 21.9788 23.2391C21.9789 22.5056 21.3843 21.9111 20.6508 21.9111Z" fill="#F6F7F8"/>
<path d="M11.7555 21.9111C11.0237 21.9111 10.4275 22.5038 10.4275 23.2391C10.4275 23.9769 11.027 24.5672 11.7555 24.5672C12.4873 24.5672 13.0836 23.9731 13.0836 23.2391C13.0836 22.5056 12.489 21.9111 11.7555 21.9111Z" fill="#F6F7F8"/>
<path d="M21.812 26.8801H19.5346C18.9161 26.8801 18.4147 27.3814 18.4147 28H22.9319C22.9319 27.3815 22.4305 26.8801 21.812 26.8801Z" fill="#F6F7F8"/>
<path d="M12.8137 26.8801H10.5363C9.91779 26.8801 9.41638 27.3814 9.41638 28C9.88353 28 13.4705 28 13.9336 28C13.9336 27.3815 13.4322 26.8801 12.8137 26.8801Z" fill="#F6F7F8"/>
<path d="M16.2452 20.4427C15.9399 20.3734 15.6364 20.5648 15.5672 20.87L14.8957 23.8308C14.7429 23.9425 13.4823 24.8647 13.3103 24.9905C12.9616 24.9905 10.2414 24.9905 10.0409 24.9905C9.21318 24.9905 8.52873 25.6639 8.52451 26.4993L8.51697 28H8.96904C8.96904 27.1347 9.67419 26.4326 10.5364 26.4326H12.8138C13.1053 26.4326 13.3784 26.5129 13.6125 26.6522L13.6214 26.1672L15.7361 24.6203C15.8464 24.5396 15.9239 24.4217 15.9541 24.2883L16.6725 21.1207C16.7418 20.8155 16.5504 20.5119 16.2452 20.4427Z" fill="#F6F7F8"/>
</g>
<defs>
<clipPath id="clip0_502_6768">
<rect width="20" height="20" fill="white" transform="translate(8 8)"/>
</clipPath>
</defs>
</svg>
