<svg width="35" height="35" viewBox="0 0 35 35" fill="none" xmlns="http://www.w3.org/2000/svg">
<circle cx="17.5" cy="17.5" r="17.5" fill="black"/>
<circle cx="17.5" cy="17.5" r="17" stroke="black" stroke-opacity="0.15"/>
<path d="M11.04 12.7061H24.0625C24.5498 12.7061 24.9854 13.1417 24.9854 13.6289V15.7823C24.9854 16.295 24.5498 16.7051 24.0625 16.7051H11.04C10.5273 16.7051 10.1172 16.295 10.1172 15.7823V13.6289C10.1172 13.1417 10.5273 12.7061 11.04 12.7061ZM23.8574 14.9111V14.5009C23.8574 14.3467 23.7032 14.1933 23.5498 14.1933H21.9092C21.7295 14.1933 21.6016 14.3475 21.6016 14.5009V14.9111C21.6016 15.0907 21.7295 15.2187 21.9092 15.2187H23.5498C23.704 15.2187 23.8574 15.0907 23.8574 14.9111ZM11.04 17.4229H24.0625C24.5498 17.4229 24.9854 17.833 24.9854 18.3457V20.4991C24.9854 21.0118 24.5498 21.4219 24.0625 21.4219H11.04C10.5273 21.4219 10.1172 21.0118 10.1172 20.4991V18.3457C10.1172 17.833 10.5273 17.4229 11.04 17.4229ZM23.8574 19.6279V19.2177C23.8574 19.0635 23.7032 18.9101 23.5498 18.9101H21.9092C21.7295 18.9101 21.6016 19.0643 21.6016 19.2177V19.6279C21.6016 19.8075 21.7295 19.9355 21.9092 19.9355H23.5498C23.704 19.9355 23.8574 19.8075 23.8574 19.6279ZM11.04 22.1397H24.0625C24.5498 22.1397 24.9854 22.5498 24.9854 23.0625V25.2159C24.9854 25.7286 24.5498 26.1387 24.0625 26.1387H11.04C10.5273 26.1387 10.1172 25.7286 10.1172 25.2159V23.0625C10.1172 22.5498 10.5273 22.1397 11.04 22.1397ZM23.8574 24.3447V23.9345C23.8574 23.7549 23.7032 23.6269 23.5498 23.6269H21.9092C21.7295 23.6269 21.6016 23.7549 21.6016 23.9345V24.3447C21.6016 24.5243 21.7295 24.6523 21.9092 24.6523H23.5498C23.704 24.6523 23.8574 24.5243 23.8574 24.3447ZM24.0625 12.0146H11.04C10.8858 12.0146 10.7324 12.04 10.6045 12.0917L12.168 9.96378C12.4756 9.55363 13.1425 9.22058 13.6552 9.22058H21.4482C21.9354 9.22058 22.6015 9.55363 22.9091 9.96378L24.4989 12.0917C24.3447 12.04 24.1905 12.0146 24.0625 12.0146Z" fill="#F6F7F8"/>
</svg>
