<svg width="35" height="35" viewBox="0 0 35 35" fill="none" xmlns="http://www.w3.org/2000/svg">
<circle cx="17.5" cy="17.5" r="17.5" fill="#F04C47"/>
<circle cx="17.5" cy="17.5" r="17" stroke="black" stroke-opacity="0.15"/>
<rect x="10.5" y="6.5" width="14" height="19" fill="#F6F7F8" stroke="#F6F7F8"/>
<path d="M24.3667 11.5C24.3667 12.4367 23.5705 13.2 22.5833 13.2C21.5962 13.2 20.8 12.4367 20.8 11.5C20.8 10.5633 21.5962 9.8 22.5833 9.8C23.5705 9.8 24.3667 10.5633 24.3667 11.5Z" fill="#F04C47" stroke="#F6F7F8" stroke-width="0.1"/>
<path d="M24.4653 25.6848H22.9054L21.1792 21.5017L21.1689 21.4768L21.1424 21.4717L16.4041 20.5669L16.3706 20.5605L16.3524 20.5894L14.5943 23.3859L24.4653 25.6848ZM24.4653 25.6848L22.8247 20.9844C22.8247 20.9843 22.8247 20.9843 22.8247 20.9843C22.7251 20.7003 22.5487 20.4461 22.313 20.2474C22.0773 20.0487 21.7907 19.9126 21.482 19.8532L18.6963 19.322L18.6244 19.3083L18.6633 19.2463L20.2877 16.6616L20.3278 16.5977L20.371 16.6595L20.7532 17.2063C20.9576 17.4971 21.2511 17.7211 21.5941 17.8476C21.9357 17.9737 22.3097 17.9967 22.6655 17.9136L24.95 16.9319V16.25V15.5657L22.2518 16.312L22.2178 16.3214L22.1975 16.2924L20.9334 14.4838C20.9334 14.4838 20.9334 14.4838 20.9334 14.4838C20.671 14.1086 20.2634 13.847 19.7989 13.757L16.2735 13.0833L16.2735 13.0833C15.8894 13.0097 15.4906 13.0589 15.1388 13.2232C14.7871 13.3874 14.5023 13.6574 14.328 13.991L14.328 13.991L12.8322 16.8465L14.3818 17.5865L15.8793 14.7269L15.8965 14.694L15.933 14.7009L17.7361 15.0457L17.808 15.0594L17.769 15.1214L13.1068 22.5388L13.0921 22.5622H13.0645H9.05V24.2122H13.0645C13.6878 24.2122 14.2738 23.8949 14.5943 23.3859L24.4653 25.6848Z" fill="#F04C47" stroke="#F6F7F8" stroke-width="0.1"/>
<path d="M24.4669 25.8542H22.9068L21.209 29.9666H23.0309L24.4669 25.8542Z" fill="#F6F7F8" stroke="#F6F7F8" stroke-width="0.1"/>
<path d="M26 16V18" stroke="#F04C47" stroke-width="0.2"/>
<path d="M25 5.99985V25.9998" stroke="#F04C47" stroke-width="0.2"/>
</svg>
