<svg width="35" height="35" viewBox="0 0 35 35" fill="none" xmlns="http://www.w3.org/2000/svg">
<circle cx="17.5" cy="17.5" r="17.5" fill="#FF3366"/>
<circle cx="17.5" cy="17.5" r="17" stroke="black" stroke-opacity="0.15"/>
<path fill-rule="evenodd" clip-rule="evenodd" d="M26 25C26 25.552 25.552 26 25 26H11C10.448 26 10 25.552 10 25V11C10 10.448 10.448 10 11 10H13C13.552 10 14 10.448 14 11V14C14 15.105 14.896 16 16 16H19C19.552 16 20 16.448 20 17V20C20 21.105 20.896 22 22 22H25C25.552 22 26 22.448 26 23V25ZM26 20H23C22.448 20 22 19.552 22 19V16C22 14.895 21.104 14 20 14H16V10C16 8.895 15.104 8 14 8H10C8.896 8 8 8.895 8 10V26C8 27.105 8.896 28 10 28H26C27.104 28 28 27.105 28 26V22C28 20.895 27.104 20 26 20Z" fill="#F6F7F8"/>
<path d="M10.5977 10.4104C10.0185 10.012 10.4128 11.3103 10.4128 11.6161C10.4128 11.9689 10.5711 12.2724 10.5977 12.6152C10.6502 13.2897 10.906 13.8835 10.906 14.5596C10.906 15.1029 11.0293 15.5895 11.0293 16.129C11.0293 16.3884 11.0501 16.6633 11.0258 16.9213C11.0044 17.1488 10.906 17.3013 10.906 17.5567C10.906 18.2012 10.9309 18.7622 11.1662 19.3672C11.2263 19.5216 11.2447 19.7821 11.2108 19.9528C11.0889 20.566 10.7982 21.2371 10.8477 21.8743C10.8941 22.4706 10.906 23.0667 10.906 23.6733C10.906 23.8915 10.906 24.1097 10.906 24.3279C10.906 24.6311 11.2544 24.7179 11.4608 24.8102" stroke="#F6F7F8" stroke-width="3" stroke-linecap="round"/>
<path d="M11.4604 24.8103C15.3149 24.8103 20.0873 24.8792 23.7622 24.8792C24.1973 24.8792 24.7909 25.0027 25.2006 24.8064C25.5362 24.6457 25.2678 23.8588 25.1458 23.6543C24.9485 23.3234 24.6362 22.946 24.3102 22.7739C23.9341 22.5754 23.4224 22.6744 23.0191 22.6744C22.6271 22.6744 22.233 22.6055 21.8478 22.6055C21.6338 22.6055 21.4222 22.4677 21.1868 22.4677C20.9282 22.4677 20.6853 22.4523 20.4608 22.2955C20.1942 22.1093 20.2652 21.6294 20.1868 21.3118C20.1095 20.9988 19.9335 20.7344 19.8511 20.4352C19.6205 19.5976 19.5044 18.7075 19.4744 17.8362C19.4504 17.1395 18.9409 17.0247 18.4127 17.0247C18.1517 17.0247 17.92 16.9041 17.6524 16.8908C17.2084 16.8687 16.7573 16.8345 16.3168 16.8181C16.0502 16.8081 15.7821 16.8181 15.5154 16.8181C15.3092 16.8181 15.2027 16.7159 15.0085 16.6764C14.784 16.6308 14.5381 16.3827 14.3441 16.2516C14.119 16.0994 14.1112 16.0957 14.1112 15.8152C14.1112 15.292 13.9263 14.805 13.9263 14.2994C13.9263 13.8875 13.9879 13.4815 13.9879 13.0631C13.9879 12.6352 13.8646 12.2268 13.8646 11.7885C13.8646 11.3225 13.7131 10.6861 13.2345 10.6861C12.9308 10.6861 12.6272 10.6861 12.3235 10.6861C11.9887 10.6861 11.7872 10.7078 11.9536 11.1263C12.1318 11.5743 11.9964 12.0315 12.1146 12.5157C12.217 12.9356 12.3333 13.3816 12.4742 13.7865C12.6141 14.1887 12.4652 14.7121 12.5221 15.1339C12.6258 15.9016 12.7401 16.678 12.755 17.4611C12.7657 18.0221 13.0016 18.4827 13.0016 19.0381C13.0016 19.7858 13.0016 20.5335 13.0016 21.2811C13.0016 21.5412 12.962 21.853 13.0632 22.0926C13.1771 22.362 13.527 22.261 13.7448 22.261C14.3889 22.261 14.9479 22.2829 15.5668 22.4333C16.1622 22.578 16.7786 22.5709 17.3785 22.4677C17.683 22.4154 17.9093 22.2871 18.1456 22.0773C18.5043 21.7589 18.165 21.2864 18.0257 20.9405C17.806 20.3947 17.608 19.8513 17.4264 19.2831C17.1957 18.5612 16.3879 18.7472 15.8236 18.7472C15.6665 18.7472 15.0693 18.6705 15.0393 18.8544C14.9934 19.1368 15.0294 19.5766 15.1113 19.8343C15.1567 19.9773 15.5578 20.2068 15.6798 20.2936C15.8384 20.4064 16.1473 20.3319 16.3305 20.3319" stroke="#F6F7F8" stroke-width="3" stroke-linecap="round"/>
</svg>
