<svg width="20" height="21" viewBox="0 0 20 21" fill="none" xmlns="http://www.w3.org/2000/svg">
<path d="M3.17187 16.0637C3.89844 16.0637 4.48437 16.5607 4.48437 17.1768C4.48437 17.793 3.89844 18.2899 3.17187 18.2899C2.44531 18.2899 1.85937 17.793 1.85937 17.1768C1.85937 16.5607 2.44531 16.0637 3.17187 16.0637ZM6.60156 16.0637C7.32812 16.0637 7.91406 16.5607 7.91406 17.1768C7.91406 17.793 7.32812 18.2899 6.60156 18.2899C5.875 18.2899 5.28906 17.793 5.28906 17.1768C5.28906 16.5607 5.88281 16.0637 6.60156 16.0637ZM4.82812 13.493C5.55469 13.493 6.14062 13.9899 6.14062 14.6061C6.14062 15.2223 5.55469 15.7192 4.82812 15.7192C4.10156 15.7192 3.51562 15.2223 3.51562 14.6061C3.51562 13.9899 4.10156 13.493 4.82812 13.493ZM8.35937 13.493C9.08594 13.493 9.67187 13.9899 9.67187 14.6061C9.67187 15.2223 9.08594 15.7192 8.35937 15.7192C7.63281 15.7192 7.04687 15.2223 7.04687 14.6061C7.04687 13.9899 7.63281 13.493 8.35937 13.493ZM11.6953 13.493C12.4219 13.493 13.0078 13.9899 13.0078 14.6061C13.0078 15.2223 12.4219 15.7192 11.6953 15.7192C10.9687 15.7192 10.3828 15.2223 10.3828 14.6061C10.3828 13.9899 10.9687 13.493 11.6953 13.493ZM15.0078 13.493C15.7344 13.493 16.3203 13.9899 16.3203 14.6061C16.3203 15.2223 15.7344 15.7192 15.0078 15.7192C14.2812 15.7192 13.6953 15.2223 13.6953 14.6061C13.6953 13.9899 14.2812 13.493 15.0078 13.493ZM13.4141 16.0637C14.1406 16.0637 14.7266 16.5607 14.7266 17.1768C14.7266 17.793 14.1406 18.2899 13.4141 18.2899C12.6875 18.2899 12.1016 17.793 12.1016 17.1768C12.1016 16.5607 12.6875 16.0637 13.4141 16.0637ZM10.0156 16.077C10.7422 16.077 11.3281 16.5739 11.3281 17.1901C11.3281 17.8063 10.7422 18.3032 10.0156 18.3032C9.28906 18.3032 8.70312 17.8063 8.70312 17.1901C8.72656 16.5739 9.3125 16.077 10.0156 16.077ZM16.8437 16.077C17.5703 16.077 18.1562 16.5739 18.1562 17.1901C18.1562 17.8063 17.5703 18.3032 16.8437 18.3032C16.1172 18.3032 15.5312 17.8063 15.5312 17.1901C15.5312 16.5739 16.1172 16.077 16.8437 16.077ZM6.11719 19.9132C6.11719 19.2308 5.46875 18.6809 4.66406 18.6809H1.63281C0.828125 18.6809 0.179688 19.2308 0.179688 19.9132M12.9922 19.9132C12.9922 19.2308 12.3437 18.6809 11.5391 18.6809H8.50781C7.70312 18.6809 7.05469 19.2308 7.05469 19.9132M19.7969 19.9132C19.7969 19.2308 19.1484 18.6809 18.3437 18.6809H15.3125C14.5078 18.6809 13.8594 19.2308 13.8594 19.9132M10.0703 5.62842C10.9219 5.62842 11.6094 6.21147 11.6094 6.93366C11.6094 7.65585 10.9219 8.2389 10.0703 8.2389C9.21875 8.2389 8.53125 7.65585 8.53125 6.93366C8.53125 6.21147 9.21875 5.62842 10.0703 5.62842ZM7.76562 11.3463V10.3193H8.25V11.3463H11.9062V10.3193H12.3672V11.3463H13.5781V10.2332C13.5781 9.35863 12.9687 8.51718 11.7812 8.51718H8.32812C7.23437 8.51718 6.54687 9.2725 6.54687 10.2133V11.3463H7.76562ZM5.10937 11.5915H14.9453V12.9762H5.10937V11.5915Z" fill="#63DB46"/>
<path d="M12.2619 6.81492C12.2139 6.81563 12.1663 6.80644 12.1234 6.78817C12.0804 6.76993 12.0433 6.7431 12.0153 6.71002C11.9872 6.67697 11.969 6.63861 11.9622 6.59829C11.9554 6.55794 11.9602 6.51678 11.9762 6.47838L12.6111 4.71155C12.4729 4.40776 12.4029 4.08475 12.4048 3.75915C12.4041 3.40097 12.4878 3.04629 12.6508 2.71588C12.8107 2.39969 13.0396 2.11196 13.3254 1.8678C13.6126 1.62316 13.9538 1.42877 14.3294 1.29569C14.7178 1.15582 15.1355 1.08374 15.5576 1.08374C15.9796 1.08374 16.3973 1.15582 16.7857 1.29569C17.3548 1.50242 17.8402 1.84577 18.1822 2.28346C18.5241 2.72116 18.7077 3.2341 18.7103 3.75915C18.7078 4.46827 18.3756 5.14791 17.7857 5.6505C17.4978 5.89287 17.1585 6.08699 16.7857 6.22261C16.0354 6.48912 15.1931 6.50117 14.4326 6.25627L12.3492 6.79473C12.3214 6.80482 12.292 6.81162 12.2619 6.81492ZM15.5556 1.59857C15.053 1.60041 14.562 1.72694 14.1431 1.96255C13.7243 2.19816 13.3959 2.53256 13.1984 2.92453C12.9361 3.46337 12.9361 4.0684 13.1984 4.60723C13.2221 4.66269 13.2221 4.7234 13.1984 4.77886L12.7103 6.18223L14.3572 5.75819C14.4225 5.73813 14.4941 5.73813 14.5595 5.75819C14.874 5.86891 15.2111 5.92589 15.5516 5.92589C15.8921 5.92589 16.2292 5.86891 16.5437 5.75819C16.8535 5.64757 17.1345 5.4862 17.3707 5.2833C17.6069 5.0804 17.7935 4.83998 17.92 4.57583C18.0464 4.31168 18.1102 4.02895 18.1076 3.74384C18.1049 3.45876 18.036 3.17691 17.9048 2.91444C17.7077 2.52437 17.3802 2.19184 16.9627 1.95797C16.5451 1.7241 16.0559 1.59915 15.5556 1.59857Z" fill="#63DB46"/>
<path d="M9.04271 4.94108L7.77716 3.23071" stroke="#63DB46" stroke-width="0.56" stroke-linecap="round"/>
<path d="M7.59129 6.4054L5.71429 5.16309" stroke="#63DB46" stroke-width="0.56" stroke-linecap="round"/>
<path d="M7.1428 7.43906L4.7619 7.42603" stroke="#63DB46" stroke-width="0.56" stroke-linecap="round"/>
</svg>
