<svg width="21" height="21" viewBox="0 0 21 21" fill="none" xmlns="http://www.w3.org/2000/svg">
<g clip-path="url(#clip0_502_7112)">
<path d="M10.1721 0.105713C9.81205 0.105713 9.5199 0.397627 9.5199 0.7579V19.4536C9.5199 19.8138 9.81205 20.1058 10.1721 20.1058C10.5321 20.1058 10.8243 19.8138 10.8243 19.4536V0.7579C10.8243 0.397627 10.5321 0.105713 10.1721 0.105713Z" fill="#5ABFF2"/>
<path d="M4.30256 1.84497C2.86404 1.84497 1.69385 3.01513 1.69385 4.45368C1.69385 5.8922 2.864 7.06239 4.30256 7.06239C5.74111 7.06239 6.91127 5.89224 6.91127 4.45368C6.91127 3.01513 5.74107 1.84497 4.30256 1.84497Z" fill="#5ABFF2"/>
<path d="M16.0417 1.84497C14.6032 1.84497 13.433 3.01513 13.433 4.45368C13.433 5.8922 14.6031 7.06239 16.0417 7.06239C17.4802 7.06239 18.6504 5.89224 18.6504 4.45368C18.6504 3.01513 17.4802 1.84497 16.0417 1.84497Z" fill="#5ABFF2"/>
<path d="M8.0993 8.64716C7.97785 8.47134 7.77746 8.36646 7.56348 8.36646H1.04172C0.827736 8.36646 0.627345 8.47134 0.5059 8.64712C0.384025 8.8229 0.356017 9.04728 0.431173 9.24767L2.3461 14.3543V16.8447C2.3461 17.9236 3.22375 18.8012 4.30262 18.8012C5.38149 18.8012 6.25914 17.9236 6.25914 16.8447V14.3543L8.17406 9.2477C8.24918 9.04735 8.22113 8.8229 8.0993 8.64716Z" fill="#5ABFF2"/>
<path d="M19.9132 14.0072L17.9566 8.78978C17.8611 8.53525 17.6178 8.3667 17.3461 8.3667H14.7374C14.4656 8.3667 14.2223 8.53525 14.1268 8.78978L12.1703 14.0072C12.0952 14.2076 12.1232 14.432 12.245 14.6077C12.3665 14.7835 12.5669 14.8884 12.7809 14.8884H14.0852V16.8449C14.0852 17.9238 14.9628 18.8015 16.0417 18.8015C17.1206 18.8015 17.9982 17.9238 17.9982 16.8449V14.8884H19.3026C19.5166 14.8884 19.7169 14.7835 19.8384 14.6078C19.9603 14.432 19.9883 14.2076 19.9132 14.0072Z" fill="#5ABFF2"/>
</g>
<defs>
<clipPath id="clip0_502_7112">
<rect width="20" height="20" fill="white" transform="translate(0.172119 0.105713)"/>
</clipPath>
</defs>
</svg>
