<svg width="20" height="20" viewBox="0 0 20 20" fill="none" xmlns="http://www.w3.org/2000/svg">
<g clip-path="url(#clip0_502_7403)">
<path d="M7.30201 2.18945C7.12877 2.18945 6.98834 2.32988 6.98834 2.50312C6.98834 2.67637 7.12877 2.8168 7.30201 2.8168H9.88709C9.94236 2.5898 10.0368 2.37801 10.1635 2.18945H7.30201Z" fill="#F0884D"/>
<path d="M19.0518 0H5.60009C5.36193 0 5.16876 0.193086 5.16876 0.431327V9.44514C5.16876 9.68334 5.36185 9.87646 5.60009 9.87646H7.84395L7.84833 9.01385H6.03146V0.862615H18.6205V9.01385H14.1553V9.87646H19.0518C19.29 9.87646 19.4831 9.68338 19.4831 9.44514V0.431327C19.4831 0.193086 19.29 0 19.0518 0Z" fill="#F0884D"/>
<path d="M11.7941 1.90613C11.0348 1.90613 10.4193 2.52163 10.4193 3.28089C10.4193 3.65011 10.5674 4.00987 10.845 4.27491C11.083 4.27491 12.5099 4.27491 12.7431 4.27491C13.0052 4.0246 13.1688 3.67194 13.1688 3.28089C13.1688 2.52163 12.5533 1.90613 11.7941 1.90613Z" fill="#F0884D"/>
<path d="M17.8764 3.04038C17.7979 2.96632 17.7059 2.91581 17.609 2.8873L17.462 2.18718C17.4175 1.9753 17.2096 1.83956 16.9977 1.88405C16.84 1.91718 16.7246 2.04089 16.6942 2.18937H13.4247C13.5514 2.378 13.6458 2.58976 13.7011 2.81675H16.7929L16.8626 3.14858L15.5137 4.57905C15.2346 4.61171 13.351 4.8319 13.0849 4.86303C13.0849 4.86303 10.6719 4.86303 10.0191 4.86303C9.16157 4.86303 8.4538 5.56061 8.44946 6.42487L8.42524 11.2495C8.4229 11.7158 8.75548 11.963 9.08497 11.9647C9.0861 11.9647 9.08724 11.9647 9.08837 11.9647C9.45302 11.9646 9.74962 11.6699 9.75145 11.3047L9.75856 9.88841L9.77594 6.43151C9.77798 6.35553 9.84071 6.29534 9.91665 6.29639C9.99259 6.29744 10.0536 6.35932 10.0536 6.4353C10.0532 12.6285 10.0391 7.9085 10.0391 16.475C10.2833 16.3679 10.55 16.3034 10.83 16.2914V16.1343C10.6966 15.8641 10.6213 15.5603 10.6213 15.2391C10.6213 14.4916 11.0278 13.8376 11.6311 13.4855V11.2198H11.9748V13.3258C12.1864 13.2508 12.4139 13.2095 12.6509 13.2095C12.9803 13.2095 13.2914 13.289 13.5668 13.4289L13.5643 6.1426C13.978 6.0942 15.6356 5.90041 15.9076 5.86866C16.0625 5.85053 16.2061 5.77842 16.3131 5.66491L17.9039 3.97807C18.1553 3.71155 18.143 3.29175 17.8764 3.04038Z" fill="#F0884D"/>
<path d="M15.8819 18.4994C15.8778 17.6651 15.1944 16.9906 14.3655 16.9906C13.9375 16.9906 11.3536 16.9906 10.9253 16.9906C10.0934 16.9906 9.41309 17.6675 9.40891 18.4994L9.40137 20H9.96726C9.96726 19.1293 10.6789 18.4327 11.5346 18.4327H13.812C14.674 18.4327 15.3793 19.1348 15.3793 20H15.8895L15.8819 18.4994Z" fill="#F0884D"/>
<path d="M12.6509 13.911C11.9175 13.911 11.3228 14.5055 11.3228 15.2391C11.3228 15.9733 11.9194 16.5671 12.6509 16.5671C13.3798 16.5671 13.9789 15.9766 13.9789 15.2391C13.9789 14.5056 13.3843 13.911 12.6509 13.911Z" fill="#F0884D"/>
<path d="M3.7556 13.911C3.0238 13.911 2.42755 14.5038 2.42755 15.2391C2.42751 15.9768 3.02704 16.5671 3.7556 16.5671C4.48731 16.5671 5.08364 15.973 5.08364 15.2391C5.08368 14.5056 4.48907 13.911 3.7556 13.911Z" fill="#F0884D"/>
<path d="M13.8121 18.88H11.5347C10.9161 18.88 10.4147 19.3814 10.4147 19.9999H14.932C14.932 19.3814 14.4306 18.88 13.8121 18.88Z" fill="#F0884D"/>
<path d="M4.81372 18.88H2.5363C1.91779 18.88 1.41638 19.3814 1.41638 19.9999C1.88353 19.9999 5.47051 19.9999 5.93364 19.9999C5.93364 19.3814 5.43223 18.88 4.81372 18.88Z" fill="#F0884D"/>
<path d="M8.24513 12.4428C7.93986 12.3734 7.63635 12.5649 7.56717 12.87L6.8956 15.8308C6.74283 15.9426 5.48225 16.8647 5.31022 16.9906C4.96159 16.9906 2.24136 16.9906 2.04089 16.9906C1.21312 16.9906 0.528665 17.664 0.524446 18.4994L0.516907 20H0.968976C0.968976 19.1348 1.67413 18.4327 2.53632 18.4327H4.81373C5.10526 18.4327 5.3783 18.5129 5.6124 18.6522L5.62131 18.1673L7.73599 16.6204C7.84638 16.5396 7.92381 16.4218 7.95404 16.2884L8.67248 13.1208C8.7417 12.8156 8.55037 12.512 8.24513 12.4428Z" fill="#F0884D"/>
</g>
<defs>
<clipPath id="clip0_502_7403">
<rect width="20" height="20" fill="white"/>
</clipPath>
</defs>
</svg>
