<svg width="20" height="20" viewBox="0 0 20 20" fill="none" xmlns="http://www.w3.org/2000/svg">
<path d="M3.86897 5.29635H16.131C16.5898 5.29635 17 5.7083 17 6.16912V8.20559C17 8.69046 16.5898 9.07836 16.131 9.07836H3.86897C3.38621 9.07836 3 8.69046 3 8.20559V6.16912C3 5.7083 3.38621 5.29635 3.86897 5.29635ZM15.9379 7.38169V6.99379C15.9379 6.84794 15.7927 6.70287 15.6483 6.70287H14.1034C13.9343 6.70287 13.8138 6.84872 13.8138 6.99379V7.38169C13.8138 7.55159 13.9343 7.67261 14.1034 7.67261H15.6483C15.7935 7.67261 15.9379 7.55159 15.9379 7.38169ZM3.86897 9.75718H16.131C16.5898 9.75718 17 10.1451 17 10.6299V12.6664C17 13.1513 16.5898 13.5392 16.131 13.5392H3.86897C3.38621 13.5392 3 13.1513 3 12.6664V10.6299C3 10.1451 3.38621 9.75718 3.86897 9.75718ZM15.9379 11.8425V11.4546C15.9379 11.3088 15.7927 11.1637 15.6483 11.1637H14.1034C13.9343 11.1637 13.8138 11.3095 13.8138 11.4546V11.8425C13.8138 12.0124 13.9343 12.1334 14.1034 12.1334H15.6483C15.7935 12.1334 15.9379 12.0124 15.9379 11.8425ZM3.86897 14.218H16.131C16.5898 14.218 17 14.6059 17 15.0908V17.1272C17 17.6121 16.5898 18 16.131 18H3.86897C3.38621 18 3 17.6121 3 17.1272V15.0908C3 14.6059 3.38621 14.218 3.86897 14.218ZM15.9379 16.3033V15.9154C15.9379 15.7455 15.7927 15.6245 15.6483 15.6245H14.1034C13.9343 15.6245 13.8138 15.7455 13.8138 15.9154V16.3033C13.8138 16.4732 13.9343 16.5943 14.1034 16.5943H15.6483C15.7935 16.5943 15.9379 16.4732 15.9379 16.3033ZM16.131 4.64236H3.86897C3.72375 4.64236 3.57931 4.66641 3.45881 4.71528L4.93103 2.70287C5.22069 2.31497 5.84866 2 6.33142 2H13.6694C14.1282 2 14.7554 2.31497 15.045 2.70287L16.542 4.71528C16.3967 4.66641 16.2515 4.64236 16.131 4.64236Z" fill="black"/>
</svg>
