<svg width="22" height="24" viewBox="0 0 22 24" fill="none" xmlns="http://www.w3.org/2000/svg">
<rect x="3.5" y="0.5" width="14" height="19" fill="#F04C47" stroke="#F04C47"/>
<path d="M16.6167 5.75C16.6167 6.68672 15.8205 7.45 14.8333 7.45C13.8462 7.45 13.05 6.68672 13.05 5.75C13.05 4.81328 13.8462 4.05 14.8333 4.05C15.8205 4.05 16.6167 4.81328 16.6167 5.75Z" fill="white" stroke="white" stroke-width="0.1"/>
<path d="M17.95 9.56559L15.2518 10.3119L15.2178 10.3213L15.1975 10.2923L13.9334 8.48371C13.9334 8.48371 13.9334 8.48371 13.9334 8.4837C13.671 8.10845 13.2634 7.84689 12.7989 7.7569L9.27353 7.08317L9.27351 7.08317C8.88936 7.00958 8.49057 7.05879 8.13884 7.22304C7.78713 7.38729 7.50232 7.65727 7.32798 7.99085L7.32796 7.99089L5.8322 10.8464L7.38181 11.5864L8.87929 8.72674L8.89651 8.69385L8.93297 8.70083L10.7361 9.04558L10.808 9.05932L10.769 9.12129L6.10683 16.5387L6.09213 16.5621H6.0645H2.05V18.2121H6.0645C6.68783 18.2121 7.27376 17.8948 7.59425 17.3858L17.95 9.56559ZM17.95 9.56559V10.2499V10.9318L15.6655 11.9135C15.3097 11.9966 14.9357 11.9735 14.5941 11.8475C14.2511 11.721 13.9576 11.497 13.7532 11.2062L13.371 10.6594L13.3278 10.5976L13.2877 10.6615L11.6633 13.2462L11.6244 13.3082L11.6963 13.3219L14.482 13.853C14.7907 13.9125 15.0773 14.0486 15.313 14.2473C15.5487 14.446 15.7251 14.7002 15.8247 14.9842L15.8246 14.9843L15.8259 14.9872L17.9246 19.9499L16.0333 19.95L14.1792 15.5014L14.1688 15.4766L14.1424 15.4716L9.40413 14.5668L9.37059 14.5604L9.35242 14.5893L7.59427 17.3858L17.95 9.56559Z" fill="white" stroke="white" stroke-width="0.1"/>
<path d="M14.9975 22.9607L16.3021 19.9607H17.6066L16.3021 22.9607H14.9975Z" fill="white" stroke="white" stroke-width="0.7"/>
<path d="M18 -0.000244141V19.9998" stroke="white" stroke-width="0.2"/>
</svg>
