<svg width="22" height="21" viewBox="0 0 22 21" fill="none" xmlns="http://www.w3.org/2000/svg">
<rect x="5.71851" y="13.7898" width="12.9817" height="3.38964" rx="1" fill="#F9C550"/>
<rect x="7.1604" y="17.1797" width="10.0969" height="3.38964" fill="#F9C550"/>
<path d="M2.83392 19.1274H8.67569V20.0918H10.046V17.4326H4.66078L4.66078 12.9494L5.137 11.9972L5.71875 11.656L8.94679 11.521C9.23527 11.3515 10.9959 9.78568 10.8517 9.6162C10.7074 9.44671 10.1181 9.05529 10.046 9.14003C9.97387 9.22477 8.60357 10.4838 8.60357 10.4838H5.71875C5.71875 10.4838 2.90601 10.3143 2.83392 10.4838C2.76183 10.6533 2.32909 19.1274 2.83392 19.1274Z" fill="#F9C550" stroke="#F9C550" stroke-linecap="round"/>
<path d="M17.3299 13.9578L16.3202 14.0425L17.1857 12.1782L17.979 9.38174C17.979 9.38174 15.8875 10.0597 15.6711 10.0597C15.4548 10.0597 13.3633 9.55122 13.3633 9.55122C13.2912 9.46648 13.2912 8.44959 13.4354 8.36484C13.5797 8.2801 15.6711 8.70381 15.6711 8.70381C15.6711 8.70381 17.6905 7.94114 17.979 7.8564C18.2675 7.77166 19.7099 7.60217 19.8541 7.68692C19.9983 7.77166 21.2965 13.7883 21.2965 13.7883C21.2965 13.7883 21.3686 20.4828 21.2965 20.4828H20.0705H19.9984C19.9984 20.4828 18.8444 20.5676 18.8444 20.4828C18.8445 20.3981 19.8541 13.7883 19.8541 13.7883L18.8444 10.0597L18.1232 12.1782L17.3299 13.9578Z" fill="#F9C550"/>
<ellipse cx="3.72323" cy="7.97835" rx="1.44296" ry="1.69514" fill="#F9C550"/>
<ellipse cx="18.6276" cy="5.73874" rx="1.37029" ry="1.61008" fill="#F9C550"/>
<g clip-path="url(#clip0_502_7218)">
<path fill-rule="evenodd" clip-rule="evenodd" d="M15.5075 6.21264C15.6368 6.31392 15.801 6.42194 15.9935 6.5054C16.3667 6.66716 16.6455 6.6766 16.7744 6.66826C17.0619 6.64962 17.1006 6.44124 16.9464 6.18267C16.7703 5.88741 16.6007 5.55374 16.6175 5.18446C16.8817 4.73784 17.036 4.19902 17.036 3.61969C17.036 2.07526 15.9408 0.823242 14.5899 0.823242C13.239 0.823242 12.1438 2.07526 12.1438 3.61969C12.1438 5.16412 13.239 6.41614 14.5899 6.41614C14.9141 6.41614 15.2239 6.34392 15.5075 6.21264ZM14.5899 1.33169C13.4846 1.33169 12.5885 2.35606 12.5885 3.61969C12.5885 4.88333 13.4846 5.9077 14.5899 5.9077C14.8945 5.9077 15.1826 5.83008 15.4405 5.69146C15.5157 5.65098 15.6045 5.66192 15.6705 5.71983C15.7868 5.82187 15.9517 5.94347 16.1512 6.02998C16.2379 6.06755 16.3171 6.09471 16.3879 6.1142C16.314 5.95984 16.2392 5.77596 16.2047 5.60291C16.1691 5.42462 16.1158 5.11407 16.2194 4.94831C16.4535 4.57382 16.5912 4.1155 16.5912 3.61969C16.5912 2.35606 15.6952 1.33169 14.5899 1.33169ZM14.8679 4.82725C14.8679 5.00277 14.7434 5.14503 14.5899 5.14503C14.4364 5.14503 14.3119 5.00277 14.3119 4.82725C14.3119 4.65174 14.4364 4.50947 14.5899 4.50947C14.7434 4.50947 14.8679 4.65174 14.8679 4.82725ZM14.1752 2.84796C14.2341 2.71964 14.386 2.6028 14.5899 2.6028C14.8752 2.6028 15.0346 2.81496 15.0346 2.98414C15.0346 3.15332 14.8752 3.36547 14.5899 3.36547C14.4671 3.36547 14.3675 3.47929 14.3675 3.61969V3.87392C14.3675 4.01432 14.4671 4.12814 14.5899 4.12814C14.7127 4.12814 14.8123 4.01432 14.8123 3.87392V3.84509C15.1751 3.75024 15.4794 3.42829 15.4794 2.98414C15.4794 2.45129 15.0415 2.09436 14.5899 2.09436C14.2467 2.09436 13.9284 2.29126 13.7813 2.61187C13.7243 2.73621 13.7663 2.88987 13.875 2.95507C13.9838 3.02026 14.1182 2.97231 14.1752 2.84796Z" fill="#F9C550"/>
</g>
<path fill-rule="evenodd" clip-rule="evenodd" d="M7.03095 6.55175C6.90164 6.65303 6.73749 6.76105 6.54496 6.84451C6.17177 7.00628 5.89298 7.01571 5.7641 7.00737C5.47655 6.98873 5.43786 6.78035 5.59207 6.52178C5.76814 6.22652 5.93779 5.89286 5.92102 5.52357C5.65682 5.07695 5.5025 4.53813 5.5025 3.9588C5.5025 2.41437 6.59766 1.16235 7.94859 1.16235C9.29953 1.16235 10.3947 2.41437 10.3947 3.9588C10.3947 5.50323 9.29953 6.75526 7.94859 6.75526C7.62441 6.75526 7.31454 6.68303 7.03095 6.55175ZM7.94859 1.6708C9.0539 1.6708 9.94993 2.69517 9.94993 3.9588C9.94993 5.22244 9.0539 6.24681 7.94859 6.24681C7.64401 6.24681 7.35588 6.1692 7.09802 6.03057C7.02274 5.9901 6.93399 6.00103 6.86799 6.05894C6.75169 6.16098 6.58681 6.28258 6.38727 6.36909C6.30057 6.40667 6.22134 6.43382 6.15058 6.45332C6.2245 6.29895 6.29932 6.11507 6.33381 5.94202C6.36935 5.76374 6.42263 5.45318 6.31905 5.28742C6.08494 4.91293 5.94724 4.45462 5.94724 3.9588C5.94724 2.69517 6.84327 1.6708 7.94859 1.6708ZM8.02672 3.61984C8.02672 3.79536 7.80107 3.9588 7.9546 3.9588C7.9546 4.13432 8.10812 3.9588 7.9546 3.9588C7.9546 3.78329 8.18024 3.61984 8.02672 3.61984C8.02672 3.44433 7.87319 3.61984 8.02672 3.61984ZM7.94859 3.83397C7.88975 3.70564 8.44138 4.00118 8.02672 3.61984C8.44138 4.21303 7.9546 3.78963 7.9546 3.9588C7.6693 3.9588 7.9546 4.12799 7.9546 3.9588C8.07741 3.9588 8.17096 3.8184 8.17096 3.9588L7.9546 3.9588C8.07741 3.9588 7.9546 4.09921 7.9546 3.9588C7.9546 4.09921 8.06337 3.89361 7.9546 3.9588C7.9546 4.40296 8.10483 3.73341 7.9546 3.9588C7.50303 3.9588 7.9546 3.42596 7.9546 3.9588C7.9546 3.78329 8.29781 3.9588 7.9546 3.9588C8.06337 3.89361 8.01163 4.08315 7.9546 3.9588C7.84583 4.024 7.55922 4.41517 7.94859 3.83397Z" fill="#F9C550"/>
<g clip-path="url(#clip1_502_7218)">
<path d="M8.38735 3.38281C8.3073 3.30712 8.21393 3.25329 8.114 3.22521C8.01407 3.19714 7.91007 3.19551 7.80954 3.22046C7.67785 3.25385 7.55746 3.33212 7.46342 3.44547C7.36938 3.55883 7.30588 3.70225 7.28084 3.85779C7.26226 3.97132 7.265 4.08826 7.28886 4.20042C7.31273 4.31259 7.35714 4.41728 7.41901 4.50718C7.46893 4.57933 7.49669 4.66914 7.4978 4.76211V4.94727C7.4978 5.01844 7.52186 5.0867 7.56469 5.13702C7.60752 5.18735 7.66561 5.21562 7.72618 5.21562H8.18295C8.24352 5.21562 8.30161 5.18735 8.34444 5.13702C8.38727 5.0867 8.41133 5.01844 8.41133 4.94727V4.76211C8.41152 4.67086 8.43809 4.58239 8.48669 4.51121C8.58612 4.36962 8.64026 4.19162 8.63971 4.00806C8.63986 3.88835 8.61728 3.77011 8.57362 3.66195C8.52997 3.55379 8.46633 3.45843 8.38735 3.38281Z" fill="#F9C550"/>
<path d="M8.68071 3.28896C8.65059 3.28846 8.62186 3.27399 8.60078 3.24871C8.57951 3.22357 8.56757 3.18957 8.56757 3.15412C8.56757 3.11867 8.57951 3.08467 8.60078 3.05953L8.68071 2.96427C8.69136 2.95175 8.704 2.94183 8.71791 2.93506C8.73182 2.92829 8.74673 2.92481 8.76179 2.92481C8.77684 2.92481 8.79175 2.92829 8.80567 2.93506C8.81958 2.94183 8.83222 2.95175 8.84286 2.96427C8.85351 2.97678 8.86196 2.99163 8.86772 3.00797C8.87348 3.02432 8.87645 3.04184 8.87645 3.05953C8.87645 3.07722 8.87348 3.09474 8.86772 3.11108C8.86196 3.12743 8.85351 3.14228 8.84286 3.15479L8.76179 3.24871C8.75121 3.26139 8.7386 3.27148 8.72468 3.27839C8.71077 3.2853 8.69582 3.28889 8.68071 3.28896ZM7.2282 3.28896C7.2131 3.28889 7.19815 3.2853 7.18423 3.27839C7.17032 3.27148 7.1577 3.26139 7.14713 3.24871L7.06605 3.15479C7.04455 3.12953 7.03247 3.09526 7.03247 3.05953C7.03247 3.0238 7.04455 2.98953 7.06605 2.96427C7.08756 2.939 7.11672 2.92481 7.14713 2.92481C7.17754 2.92481 7.2067 2.939 7.2282 2.96427L7.30814 3.05953C7.32941 3.08467 7.34134 3.11867 7.34134 3.15412C7.34134 3.18957 7.32941 3.22357 7.30814 3.24871C7.28705 3.27399 7.25832 3.28846 7.2282 3.28896ZM7.95446 2.93475C7.92417 2.93475 7.89513 2.92061 7.87371 2.89545C7.8523 2.87029 7.84027 2.83616 7.84027 2.80057V2.6664C7.84027 2.63082 7.8523 2.59669 7.87371 2.57153C7.89513 2.54636 7.92417 2.53223 7.95446 2.53223C7.98474 2.53223 8.01379 2.54636 8.0352 2.57153C8.05662 2.59669 8.06865 2.63082 8.06865 2.6664V2.80057C8.06865 2.83616 8.05662 2.87029 8.0352 2.89545C8.01379 2.92061 7.98474 2.93475 7.95446 2.93475Z" fill="#F9C550"/>
</g>
<path d="M6.29692 20.0603C6.29692 20.0603 1.53696 20.0603 1.39272 20.0603C1.24848 20.0603 1.39272 11.9252 1.39272 11.9252M1.39272 11.9252V8.36604C1.39272 8.36604 2.03381 8.28128 2.07386 8.36604C2.11391 8.4508 2.17805 11.9252 2.07386 11.9252C1.96967 11.9252 1.39272 11.9252 1.39272 11.9252Z" stroke="#F9C550" stroke-linecap="round"/>
<defs>
<clipPath id="clip0_502_7218">
<rect width="5.33692" height="6.10135" fill="white" transform="translate(11.9214 0.569092)"/>
</clipPath>
<clipPath id="clip1_502_7218">
<rect width="2.74058" height="3.22016" fill="white" transform="translate(6.58423 2.26392)"/>
</clipPath>
</defs>
</svg>
