<svg width="20" height="20" viewBox="0 0 20 20" fill="none" xmlns="http://www.w3.org/2000/svg">
<path fill-rule="evenodd" clip-rule="evenodd" d="M18 17C18 17.552 17.552 18 17 18H3C2.448 18 2 17.552 2 17V3C2 2.448 2.448 2 3 2H5C5.552 2 6 2.448 6 3V6C6 7.105 6.896 8 8 8H11C11.552 8 12 8.448 12 9V12C12 13.105 12.896 14 14 14H17C17.552 14 18 14.448 18 15V17ZM18 12H15C14.448 12 14 11.552 14 11V8C14 6.895 13.104 6 12 6H8V2C8 0.895 7.104 0 6 0H2C0.896 0 0 0.895 0 2V18C0 19.105 0.896 20 2 20H18C19.104 20 20 19.105 20 18V14C20 12.895 19.104 12 18 12Z" fill="#F04C47"/>
<path d="M2.59773 2.4104C2.01851 2.01203 2.41279 3.3103 2.41279 3.61613C2.41279 3.96889 2.57106 4.27238 2.59773 4.61515C2.65021 5.28973 2.90596 5.88349 2.90596 6.55962C2.90596 7.10293 3.02925 7.58949 3.02925 8.12897C3.02925 8.38836 3.05013 8.66325 3.02583 8.9213C3.0044 9.1488 2.90596 9.30131 2.90596 9.5567C2.90596 10.2012 2.93087 10.7622 3.16624 11.3672C3.22631 11.5216 3.24472 11.7821 3.21076 11.9528C3.08885 12.566 2.79816 13.2371 2.84774 13.8743C2.89413 14.4706 2.90596 15.0667 2.90596 15.6733C2.90596 15.8915 2.90596 16.1097 2.90596 16.3279C2.90596 16.6311 3.25439 16.7179 3.46077 16.8102" stroke="#F04C47" stroke-width="3" stroke-linecap="round"/>
<path d="M3.46045 16.8103C7.31486 16.8103 12.0873 16.8792 15.7622 16.8792C16.1973 16.8792 16.7909 17.0027 17.2006 16.8064C17.5362 16.6457 17.2678 15.8588 17.1458 15.6543C16.9485 15.3234 16.6362 14.946 16.3102 14.7739C15.9341 14.5754 15.4224 14.6744 15.0191 14.6744C14.6271 14.6744 14.233 14.6055 13.8478 14.6055C13.6338 14.6055 13.4222 14.4677 13.1868 14.4677C12.9282 14.4677 12.6853 14.4523 12.4608 14.2955C12.1942 14.1093 12.2652 13.6294 12.1868 13.3118C12.1095 12.9988 11.9335 12.7344 11.8511 12.4352C11.6205 11.5976 11.5044 10.7075 11.4744 9.83622C11.4504 9.13952 10.9409 9.02475 10.4127 9.02475C10.1517 9.02475 9.91999 8.90407 9.65244 8.89078C9.20844 8.86873 8.75728 8.83447 8.31678 8.81805C8.05021 8.80812 7.78215 8.81805 7.51538 8.81805C7.30921 8.81805 7.20266 8.71588 7.00852 8.67643C6.78396 8.6308 6.53814 8.38268 6.34411 8.25156C6.11901 8.09943 6.11122 8.09574 6.11122 7.8152C6.11122 7.29199 5.92629 6.805 5.92629 6.29944C5.92629 5.88754 5.98793 5.48154 5.98793 5.06309C5.98793 4.63517 5.86464 4.22685 5.86464 3.78847C5.86464 3.32252 5.71306 2.6861 5.23448 2.6861C4.93082 2.6861 4.62716 2.6861 4.32349 2.6861C3.98868 2.6861 3.7872 2.70779 3.95362 3.12628C4.13179 3.57434 3.99641 4.03148 4.11458 4.51573C4.21704 4.93562 4.33329 5.38159 4.47418 5.78652C4.61414 6.18875 4.46517 6.7121 4.52213 7.13387C4.62581 7.90159 4.74011 8.67798 4.75501 9.46111C4.76569 10.0221 5.0016 10.4827 5.0016 11.0381C5.0016 11.7858 5.0016 12.5335 5.0016 13.2811C5.0016 13.5412 4.96201 13.853 5.06324 14.0926C5.17707 14.362 5.52699 14.261 5.74477 14.261C6.38894 14.261 6.94795 14.2829 7.56675 14.4333C8.16221 14.578 8.77857 14.5709 9.37846 14.4677C9.683 14.4154 9.90925 14.2871 10.1456 14.0773C10.5043 13.7589 10.165 13.2864 10.0257 12.9405C9.80598 12.3947 9.60799 11.8513 9.42641 11.2831C9.19573 10.5612 8.38794 10.7472 7.82361 10.7472C7.66646 10.7472 7.06926 10.6705 7.03934 10.8544C6.9934 11.1368 7.02945 11.5766 7.11126 11.8343C7.15666 11.9773 7.55778 12.2068 7.67977 12.2936C7.83838 12.4064 8.14726 12.3319 8.33048 12.3319" stroke="#F04C47" stroke-width="3" stroke-linecap="round"/>
</svg>
